<?xml version="1.0" ?><svg enable-background="new 0 0 504 504" id="Layer_1" version="1.1" viewBox="0 0 504 504" xml:space="preserve" xmlns="http://www.w3.org/2000/svg" xmlns:xlink="http://www.w3.org/1999/xlink"><path d="M459.7,256.7c-9.2,58.5-27.1,75.6-58.8,114.9c-31.7,33.3-77.3,88.9-141.9,85.8  c-58.5-9.2-75.6-27.1-114.9-58.8c-33.3-31.7-88.9-77.3-85.8-141.9c9.2-58.5,27.1-75.6,58.8-114.9C148.8,108.5,194.4,53,259,56  c58.5,9.2,75.6,27.1,114.9,58.8C407.2,146.5,462.8,192.1,459.7,256.7z" fill="#3765AF"/><g><path d="M140.7,227.3c4.9,0,9.5,1,13.9,2.9c4.4,2,8.2,4.6,11.5,7.9c3.3,3.3,5.9,7.2,7.9,11.6   c2,4.4,2.9,9.1,2.9,14.1c0,5-1,9.7-2.9,14c-1.9,4.4-4.5,8.2-7.7,11.5c-3.3,3.3-7.1,5.9-11.5,7.8c-4.4,1.9-9.2,2.9-14.3,2.9   c-5,0-9.7-0.9-14.1-2.7c-4.4-1.8-8.3-4.3-11.6-7.6c-3.3-3.3-5.9-7.1-7.8-11.5c-1.9-4.4-2.9-9.2-2.9-14.4c0-5,0.9-9.7,2.8-14   c1.9-4.4,4.4-8.2,7.7-11.4c3.3-3.3,7.2-5.9,11.6-7.8C130.8,228.6,135.6,227.5,140.7,227.3z M140.5,242.2c-2.9,0-5.7,0.6-8.3,1.7   c-2.7,1.1-5,2.6-6.9,4.6c-2,2-3.5,4.2-4.7,6.8c-1.2,2.6-1.7,5.5-1.7,8.6c0,2.9,0.6,5.7,1.7,8.3c1.2,2.7,2.7,5,4.7,7   c2,2,4.3,3.6,6.9,4.7c2.7,1.2,5.4,1.7,8.3,1.7c2.9,0,5.7-0.6,8.3-1.7c2.7-1.2,5-2.7,6.9-4.7c2-2,3.5-4.3,4.7-7   c1.2-2.7,1.7-5.4,1.7-8.3c-0.3-5.9-2.4-10.9-6.3-15c-3.9-4.1-9-6.3-15.2-6.7L140.5,242.2L140.5,242.2z" fill="#FFFFFF"/><path d="M245.2,204.1c1.7-0.1,3.3,0.6,4.8,2c1.5,1.5,2.3,3,2.3,4.7v52.7c0,4.9-1,9.6-3,14c-2,4.4-4.7,8.3-8.1,11.6   c-3.4,3.3-7.3,5.9-11.6,7.9c-4.4,2-8.9,2.9-13.7,2.9c-4.9,0-9.6-1-14-2.9c-4.4-1.9-8.3-4.5-11.6-7.8c-3.3-3.3-5.9-7.2-7.9-11.6   c-2-4.4-2.9-9.1-2.9-14.1c0-5.4,0.9-10.2,2.6-14.3c1.8-4.1,4.4-8,7.9-11.6v0.2c3.7-3.5,7.8-6.2,12.2-8c4.5-1.8,9-2.7,13.7-2.7   c2.8,0,6.1,0.5,10,1.4c3.9,0.9,7.7,2.7,11.5,5.3v-22.2c0-1,0.2-2,0.6-2.9c0.4-0.9,0.9-1.7,1.6-2.5c0.7-0.8,1.4-1.3,2.3-1.7   c0.9-0.4,1.8-0.5,2.7-0.5L245.2,204.1L245.2,204.1z M237.4,263.6c0-2.7-0.6-5.4-1.7-8c-1.2-2.6-2.7-4.9-4.7-7   c-2-2.1-4.3-3.7-6.9-4.9c-2.6-1.2-5.4-1.8-8.3-1.8c-2.9,0-5.7,0.6-8.3,1.7c-2.7,1.2-5,2.7-6.9,4.7c-2,2-3.5,4.3-4.7,6.9   c-1.2,2.7-1.7,5.4-1.7,8.3c0,3,0.6,5.8,1.7,8.4c1.2,2.6,2.7,4.9,4.7,6.8c2,2,4.3,3.5,6.9,4.7c2.7,1.2,5.4,1.7,8.3,1.7   c2.9,0,5.7-0.6,8.3-1.7c2.6-1.2,4.9-2.7,6.9-4.7c2-2,3.6-4.2,4.7-6.8C236.9,269.5,237.4,266.7,237.4,263.6z" fill="#FFFFFF"/><path d="M293,227.3c4.9,0,9.5,1,13.9,2.9c4.4,2,8.2,4.6,11.5,7.9c3.3,3.3,5.9,7.2,7.9,11.6c2,4.4,2.9,9.1,2.9,14.1   c0,5-1,9.7-2.9,14c-1.9,4.4-4.5,8.2-7.7,11.5c-3.3,3.3-7.1,5.9-11.5,7.8c-4.4,1.9-9.2,2.9-14.3,2.9c-5,0-9.7-0.9-14.1-2.7   c-4.4-1.8-8.3-4.3-11.6-7.6c-3.3-3.3-5.9-7.1-7.8-11.5c-1.9-4.4-2.9-9.2-2.9-14.4c0-5,0.9-9.7,2.8-14c1.9-4.4,4.4-8.2,7.7-11.4   c3.3-3.3,7.2-5.9,11.6-7.8C283.1,228.6,287.9,227.5,293,227.3z M292.9,242.2c-2.9,0-5.7,0.6-8.3,1.7c-2.7,1.1-5,2.6-6.9,4.6   c-2,2-3.5,4.2-4.7,6.8c-1.2,2.6-1.7,5.5-1.7,8.6c0,2.9,0.6,5.7,1.7,8.3c1.2,2.7,2.7,5,4.7,7c2,2,4.3,3.6,6.9,4.7   c2.7,1.2,5.4,1.7,8.3,1.7c2.9,0,5.7-0.6,8.3-1.7c2.7-1.2,5-2.7,6.9-4.7c2-2,3.5-4.3,4.7-7c1.2-2.7,1.7-5.4,1.7-8.3   c-0.3-5.9-2.4-10.9-6.3-15c-3.9-4.1-9-6.3-15.2-6.7L292.9,242.2L292.9,242.2z" fill="#FFFFFF"/><path d="M369.4,227.3c4.9,0,9.5,1,13.9,2.9c4.4,2,8.2,4.6,11.5,7.9c3.3,3.3,5.9,7.2,7.9,11.6   c2,4.4,2.9,9.1,2.9,14.1c0,5-1,9.7-2.9,14c-1.9,4.4-4.5,8.2-7.7,11.5c-3.3,3.3-7.1,5.9-11.5,7.8c-4.4,1.9-9.2,2.9-14.3,2.9   c-5,0-9.7-0.9-14.1-2.7c-4.4-1.8-8.3-4.3-11.6-7.6c-3.3-3.3-5.9-7.1-7.8-11.5c-1.9-4.4-2.9-9.2-2.9-14.4c0-5,0.9-9.7,2.8-14   c1.9-4.4,4.4-8.2,7.7-11.4c3.3-3.3,7.2-5.9,11.6-7.8C359.5,228.6,364.2,227.5,369.4,227.3z M369.2,242.2c-2.9,0-5.7,0.6-8.3,1.7   c-2.7,1.1-5,2.6-6.9,4.6c-2,2-3.5,4.2-4.7,6.8c-1.2,2.6-1.7,5.5-1.7,8.6c0,2.9,0.6,5.7,1.7,8.3c1.2,2.7,2.7,5,4.7,7   c2,2,4.3,3.6,6.9,4.7c2.7,1.2,5.4,1.7,8.3,1.7c2.9,0,5.7-0.6,8.3-1.7c2.7-1.2,5-2.7,6.9-4.7c2-2,3.5-4.3,4.7-7   c1.2-2.7,1.7-5.4,1.7-8.3c-0.3-5.9-2.4-10.9-6.3-15c-3.9-4.1-9-6.3-15.2-6.7L369.2,242.2L369.2,242.2z" fill="#FFFFFF"/></g></svg>